<?xml version="1.0" standalone="no"?>
<!DOCTYPE svg PUBLIC "-//W3C//DTD SVG 20010904//EN"
 "http://www.w3.org/TR/2001/REC-SVG-20010904/DTD/svg10.dtd">
<svg version="1.0" xmlns="http://www.w3.org/2000/svg"
 width="700.000000pt" height="700.000000pt" viewBox="0 0 700.000000 700.000000"
 preserveAspectRatio="xMidYMid meet">
<metadata>
Created by potrace 1.14, written by Peter Selinger 2001-2017
</metadata>
<g transform="translate(0.000000,700.000000) scale(0.100000,-0.100000)"
fill="#000000" stroke="none">
<path d="M0 3500 l0 -3500 3500 0 3500 0 0 3500 0 3500 -3500 0 -3500 0 0
-3500z m4037 1719 c452 -50 720 -283 799 -696 23 -118 22 -349 -1 -458 -22
-107 -66 -214 -120 -296 -51 -76 -152 -175 -220 -214 -25 -15 -45 -30 -45 -34
0 -4 19 -13 43 -20 157 -47 341 -198 411 -339 57 -114 76 -203 83 -387 11
-300 -43 -520 -171 -698 -124 -174 -296 -275 -578 -340 -91 -20 -116 -21
-1105 -24 l-1013 -4 0 1761 0 1760 910 0 c582 0 946 -4 1007 -11z"/>
<path d="M2720 4256 l0 -526 573 0 c620 0 648 2 767 56 108 48 193 162 226
301 22 94 15 305 -14 384 -57 160 -141 236 -312 285 -59 16 -121 18 -652 22
l-588 3 0 -525z"/>
<path d="M2720 2720 l0 -571 628 3 c682 4 668 3 799 63 106 48 180 147 219
290 24 91 30 303 10 395 -43 202 -160 316 -376 366 -65 15 -153 18 -677 21
l-603 4 0 -571z"/>
</g>
</svg>
