<svg width="512" height="110" viewBox="0 0 512 110" fill="none" xmlns="http://www.w3.org/2000/svg">
<path d="M23.808 87V22.488H0.64V4.56799H71.04V22.488H47.872V87H23.808ZM77.385 87V0.727997H101.449V30.04C103.582 28.5893 106.228 27.3947 109.385 26.456C112.628 25.5173 116.084 25.048 119.753 25.048C128.116 25.048 134.217 27.0107 138.057 30.936C141.897 34.776 143.817 40.7493 143.817 48.856V87H119.625V50.648C119.625 47.832 119.028 45.8267 117.833 44.632C116.724 43.4373 114.676 42.84 111.689 42.84C109.897 42.84 108.02 43.2667 106.057 44.12C104.18 44.9733 102.644 45.9973 101.449 47.192V87H77.385ZM187.293 88.28C180.21 88.28 173.938 87.128 168.477 84.824C163.101 82.4347 158.877 78.8933 155.805 74.2C152.818 69.5067 151.325 63.704 151.325 56.792C151.325 47.1493 154.056 39.4693 159.517 33.752C164.978 27.9493 173.128 25.048 183.965 25.048C193.864 25.048 201.586 27.5653 207.133 32.6C212.765 37.6347 215.581 44.504 215.581 53.208V63.832H173.469C174.578 67.0747 176.754 69.3787 179.997 70.744C183.24 72.1093 187.634 72.792 193.181 72.792C196.68 72.792 200.178 72.4933 203.677 71.896C207.261 71.2133 210.12 70.4453 212.253 69.592V84.056C206.28 86.872 197.96 88.28 187.293 88.28ZM173.469 50.776H194.845V48.6C194.845 46.2107 194.077 44.248 192.541 42.712C191.09 41.176 188.488 40.408 184.733 40.408C180.552 40.408 177.608 41.304 175.901 43.096C174.28 44.8027 173.469 47.3627 173.469 50.776ZM250.76 87V4.56799H296.072C304.435 4.56799 310.792 6.53066 315.144 10.456C319.496 14.3813 321.672 20.0133 321.672 27.352C321.672 31.6187 320.861 35.2027 319.24 38.104C317.704 41.0053 315.656 43.3093 313.096 45.016C316.595 46.3813 319.368 48.3867 321.416 51.032C323.549 53.592 324.616 57.432 324.616 62.552C324.616 70.3173 322.227 76.3333 317.448 80.6C312.669 84.8667 305.885 87 297.096 87H250.76ZM273.928 37.464H289.544C295.432 37.464 298.376 34.8187 298.376 29.528C298.376 26.8827 297.651 24.8773 296.2 23.512C294.835 22.1467 292.403 21.464 288.904 21.464H273.928V37.464ZM273.928 70.232H290.568C293.811 70.232 296.2 69.5493 297.736 68.184C299.272 66.8187 300.04 64.5573 300.04 61.4C300.04 58.7547 299.272 56.7493 297.736 55.384C296.2 54.0187 293.64 53.336 290.056 53.336H273.928V70.232ZM354.243 88.28C346.819 88.28 341.528 86.7013 338.371 83.544C335.214 80.3867 333.635 75.4373 333.635 68.696V0.727997H357.699V66.008C357.699 67.8853 358.083 69.1653 358.851 69.848C359.619 70.4453 360.814 70.744 362.435 70.744C363.544 70.744 364.611 70.6587 365.635 70.488C366.744 70.3173 367.768 70.0613 368.707 69.72V85.72C366.488 86.5733 364.312 87.2133 362.179 87.64C360.131 88.0667 357.486 88.28 354.243 88.28ZM407.406 88.28C395.289 88.28 386.329 85.592 380.526 80.216C374.809 74.84 371.95 66.9893 371.95 56.664C371.95 46.424 374.851 38.616 380.654 33.24C386.457 27.7787 395.374 25.048 407.406 25.048C419.523 25.048 428.483 27.7787 434.286 33.24C440.174 38.616 443.118 46.424 443.118 56.664C443.118 66.9893 440.217 74.84 434.414 80.216C428.611 85.592 419.609 88.28 407.406 88.28ZM407.406 70.744C411.331 70.744 414.147 69.6347 415.854 67.416C417.646 65.1973 418.542 61.6133 418.542 56.664C418.542 51.8 417.646 48.2587 415.854 46.04C414.147 43.736 411.331 42.584 407.406 42.584C403.566 42.584 400.793 43.736 399.086 46.04C397.379 48.2587 396.526 51.8 396.526 56.664C396.526 61.6133 397.379 65.1973 399.086 67.416C400.793 69.6347 403.566 70.744 407.406 70.744ZM478.759 109.528C475.772 109.528 472.53 109.4 469.031 109.144C465.532 108.973 462.204 108.632 459.047 108.12C455.975 107.608 453.415 107.011 451.367 106.328V90.968C453.671 91.736 456.316 92.376 459.303 92.888C462.375 93.4 465.49 93.784 468.647 94.04C471.804 94.296 474.706 94.424 477.351 94.424C481.874 94.424 485.415 94.168 487.975 93.656C490.62 93.2293 491.943 92.4187 491.943 91.224C491.943 90.2 491.516 89.5173 490.663 89.176C489.81 88.92 488.188 88.792 485.799 88.792H469.799C463.57 88.792 458.748 87.8107 455.335 85.848C452.007 83.8 450.343 80.7707 450.343 76.76C450.343 71.128 453.458 67.2027 459.687 64.984C456.188 63.192 453.628 60.9307 452.007 58.2C450.386 55.4693 449.575 52.0133 449.575 47.832C449.575 39.9813 452.22 34.2213 457.511 30.552C462.887 26.8827 470.61 25.048 480.679 25.048C482.812 25.048 485.202 25.2187 487.847 25.56C490.492 25.816 492.412 26.072 493.607 26.328H517.415L516.903 40.92H508.839C510.375 42.8827 511.143 45.272 511.143 48.088C511.143 54.3173 509.308 59.2667 505.639 62.936C502.055 66.52 496.38 68.312 488.615 68.312C487.506 68.312 486.311 68.2693 485.031 68.184C483.751 68.0133 482.556 67.8853 481.447 67.8C479.57 67.9707 477.948 68.312 476.583 68.824C475.218 69.336 474.535 70.1893 474.535 71.384C474.535 72.2373 474.919 72.8347 475.687 73.176C476.455 73.432 477.522 73.56 478.887 73.56H492.839C499.068 73.56 503.975 75.0107 507.559 77.912C511.143 80.8133 512.935 85.08 512.935 90.712C512.935 96.6853 510.162 101.293 504.615 104.536C499.068 107.864 490.45 109.528 478.759 109.528ZM480.807 55.128C484.562 55.128 487.164 54.488 488.615 53.208C490.066 51.928 490.791 49.7947 490.791 46.808C490.791 43.8213 490.066 41.6453 488.615 40.28C487.164 38.9147 484.562 38.232 480.807 38.232C477.308 38.232 474.748 38.9147 473.127 40.28C471.591 41.56 470.823 43.736 470.823 46.808C470.823 49.7093 471.548 51.8427 472.999 53.208C474.535 54.488 477.138 55.128 480.807 55.128Z" fill="white"/>
</svg>
